HIERARCHY
ROOT root
{
  OFFSET 0 95.9893 0
  CHANNELS 6 Xposition Yposition Zposition Zrotation Xrotation Yrotation
  JOINT torso_1
  {
    OFFSET 0 5.22546 -1.18466
    CHANNELS 6 Xposition Yposition Zposition Zrotation Xrotation Yrotation
    JOINT torso_2
    {
      OFFSET 0 5.77894 1.10239
      CHANNELS 6 Xposition Yposition Zposition Zrotation Xrotation Yrotation
      JOINT torso_3
      {
        OFFSET -1.0557e-17 6.16289 0.118334
        CHANNELS 6 Xposition Yposition Zposition Zrotation Xrotation Yrotation
        JOINT torso_4
        {
          OFFSET -1.13649e-17 6.69386 -0.456341
          CHANNELS 6 Xposition Yposition Zposition Zrotation Xrotation Yrotation
          JOINT torso_5
          {
            OFFSET -2.02997e-17 7.82529 -1.54945
            CHANNELS 6 Xposition Yposition Zposition Zrotation Xrotation Yrotation
            JOINT torso_6
            {
              OFFSET -2.60628e-17 9.77186 -0.940923
              CHANNELS 6 Xposition Yposition Zposition Zrotation Xrotation Yrotation
              JOINT torso_7
              {
                OFFSET -2.98794e-17 10.8563 1.62248
                CHANNELS 6 Xposition Yposition Zposition Zrotation Xrotation Yrotation
                JOINT neck_1
                {
                  OFFSET -1.32927e-17 4.92478 0.736013
                  CHANNELS 6 Xposition Yposition Zposition Zrotation Xrotation Yrotation
                  JOINT neck_2
                  {
                    OFFSET -1.86396e-17 4.96043 0.433981
                    CHANNELS 6 Xposition Yposition Zposition Zrotation Xrotation Yrotation
                    JOINT head
                    {
                      OFFSET -2.06766e-17 4.97002 0.787173
                      CHANNELS 6 Xposition Yposition Zposition Zrotation Xrotation Yrotation
                      End Site
                      {
                        OFFSET 0 0.1 0
                      }
                    }
                  }
                }
                JOINT l_shoulder
                {
                  OFFSET 1.26863 -7.82717 7.75148
                  CHANNELS 6 Xposition Yposition Zposition Zrotation Xrotation Yrotation
                  JOINT l_up_arm
                  {
                    OFFSET 13.3291 3.34342 -3.36319
                    CHANNELS 6 Xposition Yposition Zposition Zrotation Xrotation Yrotation
                    JOINT l_low_arm
                    {
                      OFFSET 30.0522 0.0615366 0.141
                      CHANNELS 6 Xposition Yposition Zposition Zrotation Xrotation Yrotation
                      JOINT l_hand
                      {
                        OFFSET 24.9344 0.0510561 0.116988
                        CHANNELS 6 Xposition Yposition Zposition Zrotation Xrotation Yrotation
                        End Site
                        {
                          OFFSET 0.1 0 0
                        }
                      }
                    }
                  }
                }
                JOINT r_shoulder
                {
                  OFFSET -1.26863 -7.82715 7.75138
                  CHANNELS 6 Xposition Yposition Zposition Zrotation Xrotation Yrotation
                  JOINT r_up_arm
                  {
                    OFFSET -13.3291 3.34342 -3.36319
                    CHANNELS 6 Xposition Yposition Zposition Zrotation Xrotation Yrotation
                    JOINT r_low_arm
                    {
                      OFFSET -30.0522 0.0615366 0.141
                      CHANNELS 6 Xposition Yposition Zposition Zrotation Xrotation Yrotation
                      JOINT r_hand
                      {
                        OFFSET -24.9344 0.0510559 0.116988
                        CHANNELS 6 Xposition Yposition Zposition Zrotation Xrotation Yrotation
                        End Site
                        {
                          OFFSET -0.1 0 0
                        }
                      }
                    }
                  }
                }
              }
            }
          }
        }
      }
    }
  }
  JOINT l_up_leg
  {
    OFFSET 9.50369 -4.32711 2.09145
    CHANNELS 6 Xposition Yposition Zposition Zrotation Xrotation Yrotation
    JOINT l_low_leg
    {
      OFFSET -0.876987 -39.8926 -0.674123
      CHANNELS 6 Xposition Yposition Zposition Zrotation Xrotation Yrotation
      JOINT l_foot
      {
        OFFSET -2.39345 -41.5694 -6.22357
        CHANNELS 6 Xposition Yposition Zposition Zrotation Xrotation Yrotation
        JOINT l_toes
        {
          OFFSET 0.801613 -10.1701 12.8571
          CHANNELS 6 Xposition Yposition Zposition Zrotation Xrotation Yrotation
          End Site
          {
            OFFSET 0 0 0.1
          }
        }
      }
    }
  }
  JOINT r_up_leg
  {
    OFFSET -9.50369 -4.32711 2.09145
    CHANNELS 6 Xposition Yposition Zposition Zrotation Xrotation Yrotation
    JOINT r_low_leg
    {
      OFFSET 0.876987 -39.8926 -0.674123
      CHANNELS 6 Xposition Yposition Zposition Zrotation Xrotation Yrotation
      JOINT r_foot
      {
        OFFSET 2.39345 -41.5694 -6.22357
        CHANNELS 6 Xposition Yposition Zposition Zrotation Xrotation Yrotation
        JOINT r_toes
        {
          OFFSET -0.801613 -10.1701 12.8571
          CHANNELS 6 Xposition Yposition Zposition Zrotation Xrotation Yrotation
          End Site
          {
            OFFSET 0 0 0.1
          }
        }
      }
    }
  }
}
MOTION
Frames: 6
Frame Time: 0.016667
34.9745 92.0958 1865.09 1.49771 -13.8839 1.90452 0 5.22546 -1.18466 0.559164 6.35969 1.69177 0 5.77894 1.10239 0.233987 5.48771 1.74193 -1.0557e-17 6.16289 0.118334 0.0104387 5.35541 1.7945 -1.13649e-17 6.69386 -0.456341 -0.16645 4.67056 1.79657 -2.02997e-17 7.82529 -1.54945 0.0244882 3.75539 1.89832 -2.60628e-17 9.77186 -0.940923 0.423207 3.45036 1.64525 -2.98794e-17 10.8563 1.62248 0.0539385 0.5883 -0.127106 -1.32927e-17 4.92478 0.736013 -1.68572 -4.29962 -7.89007 -1.86396e-17 4.96043 0.433981 -0.775926 -7.28224 -3.8717 -2.06766e-17 4.97002 0.787173 0.0221977 -6.14273 3.57438 1.26863 -7.82717 7.75148 -2.68345 5.08328 -2.97138 13.3291 3.34342 -3.36319 -80.34 31.3516 2.83353 30.0522 0.0615366 0.141 1.70861 -0.114567 -8.26142 24.9344 0.0510561 0.116988 -3.67923 -50.2564 -2.94865 -1.26863 -7.82715 7.75138 -0.521945 1.13656 4.04204 -13.3291 3.34342 -3.36319 55.557 11.6076 26.3742 -30.0522 0.0615366 0.141 -4.65954 -0.924601 23.0295 -24.9344 0.0510559 0.116988 5.1618 -41.2959 7.23462 9.50369 -4.32711 2.09145 -9.09141 -22.905 -19.3616 -0.876987 -39.8926 -0.674123 -21.1102 54.3648 9.88132 -2.39345 -41.5694 -6.22357 4.56574 -8.61296 15.4922 0.801613 -10.1701 12.8571 1.15886e-16 -6.67877e-16 -1.98141e-16 -9.50369 -4.32711 2.09145 1.12576 7.06067 14.2664 0.876987 -39.8926 -0.674123 0.62094 2.31899 0.0279138 2.39345 -41.5694 -6.22357 -10.5604 -6.13143 -15.4655 -0.801613 -10.1701 12.8571 -6.79769e-16 -3.82443e-16 -1.2577e-14 
35.0136 92.3424 1866.69 1.25765 -13.5247 1.36388 0 5.22546 -1.18466 0.542239 6.13111 1.74976 0 5.77894 1.10239 0.216237 5.41189 1.79438 -1.0557e-17 6.16289 0.118334 -0.011747 5.3827 1.84742 -1.13649e-17 6.69386 -0.456341 -0.20484 4.85663 1.85164 -2.02997e-17 7.82529 -1.54945 -0.0176615 4.03215 1.96159 -2.60628e-17 9.77186 -0.940923 0.390188 3.81229 1.7141 -2.98794e-17 10.8563 1.62248 0.063601 0.552473 -0.137718 -1.32927e-17 4.92478 0.736013 -1.83982 -5.28815 -7.65206 -1.86396e-17 4.96043 0.433981 -0.816256 -7.54929 -3.75812 -2.06766e-17 4.97002 0.787173 0.05458 -6.1555 3.18798 1.26863 -7.82717 7.75148 -3.17318 4.88454 -3.07668 13.3291 3.34342 -3.36319 -79.9294 30.0589 2.34618 30.0522 0.0615366 0.141 1.76175 -0.122123 -8.52007 24.9344 0.0510561 0.116988 -2.31577 -49.0755 -1.13976 -1.26863 -7.82715 7.75138 -0.281866 0.804037 4.03877 -13.3291 3.34342 -3.36319 55.8459 11.2697 26.8911 -30.0522 0.0615366 0.141 -5.07123 -1.10627 25.1913 -24.9344 0.0510559 0.116988 4.94243 -41.9721 7.28912 9.50369 -4.32711 2.09145 -8.25028 -24.4466 -19.187 -0.876987 -39.8926 -0.674123 -18.1663 50.2745 7.62514 -2.39345 -41.5694 -6.22357 4.82058 -10.0252 15.5881 0.801613 -10.1701 12.8571 -5.19961e-16 -6.95349e-16 -1.68336e-16 -9.50369 -4.32711 2.09145 1.29883 7.99132 14.4922 0.876987 -39.8926 -0.674123 0.425818 1.59005 0.0218463 2.39345 -41.5694 -6.22357 -10.5578 -5.92325 -15.3863 -0.801613 -10.1701 12.8571 -9.18048e-16 -3.72148e-16 -1.25695e-14 
34.9616 92.5912 1868.38 0.972218 -13.0066 1.00368 0 5.22546 -1.18466 0.554244 5.8306 1.79872 0 5.77894 1.10239 0.217011 5.27357 1.8425 -1.0557e-17 6.16289 0.118334 -0.0249956 5.35624 1.89639 -1.13649e-17 6.69386 -0.456341 -0.241023 5.00274 1.90203 -2.02997e-17 7.82529 -1.54945 -0.0649134 4.27815 2.0202 -2.60628e-17 9.77186 -0.940923 0.349679 4.14689 1.78366 -2.98794e-17 10.8563 1.62248 0.0763778 0.523465 -0.154374 -1.32927e-17 4.92478 0.736013 -1.98235 -6.27683 -7.48588 -1.86396e-17 4.96043 0.433981 -0.809623 -7.67537 -3.67415 -2.06766e-17 4.97002 0.787173 0.104231 -6.07576 2.84149 1.26863 -7.82717 7.75148 -3.75852 4.7344 -3.3276 13.3291 3.34342 -3.36319 -79.2594 28.5961 1.78682 30.0522 0.0615366 0.141 1.73675 -0.118535 -8.39837 24.9344 0.0510561 0.116988 -1.43062 -47.4047 0.271663 -1.26863 -7.82715 7.75138 -0.0124912 0.514422 4.10243 -13.3291 3.34342 -3.36319 56.3195 11.0149 26.9848 -30.0522 0.0615366 0.141 -5.46801 -1.29937 27.31 -24.9344 0.0510559 0.116988 4.7613 -42.3573 7.417 9.50369 -4.32711 2.09145 -7.15993 -25.6101 -18.7763 -0.876987 -39.8926 -0.674123 -15.3865 45.5764 5.64509 -2.39345 -41.5694 -6.22357 4.3719 -10.4902 15.6065 0.801613 -10.1701 12.8571 -4.34048e-17 -6.74759e-16 -1.90674e-16 -9.50369 -4.32711 2.09145 1.54687 8.81416 14.6346 0.876987 -39.8926 -0.674123 0.235982 0.880965 0.0135634 2.39345 -41.5694 -6.22357 -10.4871 -5.66659 -15.2962 -0.801613 -10.1701 12.8571 -4.39221e-17 -4.09914e-16 -1.26068e-14 
34.8463 92.8139 1870.13 0.607446 -12.402 0.757848 0 5.22546 -1.18466 0.588559 5.52277 1.84096 0 5.77894 1.10239 0.234046 5.11295 1.88628 -1.0557e-17 6.16289 0.118334 -0.0266885 5.29736 1.94032 -1.13649e-17 6.69386 -0.456341 -0.267605 5.10141 1.9466 -2.02997e-17 7.82529 -1.54945 -0.105429 4.46576 2.07011 -2.60628e-17 9.77186 -0.940923 0.313696 4.41666 1.84381 -2.98794e-17 10.8563 1.62248 0.0912694 0.50139 -0.173347 -1.32927e-17 4.92478 0.736013 -2.08942 -7.16529 -7.35423 -1.86396e-17 4.96043 0.433981 -0.737464 -7.71945 -3.60338 -2.06766e-17 4.97002 0.787173 0.158446 -5.94557 2.56803 1.26863 -7.82717 7.75148 -4.35481 4.64101 -3.69296 13.3291 3.34342 -3.36319 -78.4934 27.1594 1.26774 30.0522 0.0615366 0.141 1.65133 -0.106689 -7.98278 24.9344 0.0510561 0.116988 -1.05511 -45.3159 1.16862 -1.26863 -7.82715 7.75138 0.255098 0.275677 4.2186 -13.3291 3.34342 -3.36319 56.8878 10.9121 26.7775 -30.0522 0.0615366 0.141 -5.81896 -1.48566 29.2165 -24.9344 0.0510559 0.116988 4.6608 -42.4523 7.61548 9.50369 -4.32711 2.09145 -5.63773 -26.3113 -17.6522 -0.876987 -39.8926 -0.674123 -12.8219 40.367 3.98841 -2.39345 -41.5694 -6.22357 3.53222 -10.4801 15.5305 0.801613 -10.1701 12.8571 -2.02037e-16 -6.81613e-16 -1.78271e-16 -9.50369 -4.32711 2.09145 1.89838 9.54546 14.7219 0.876987 -39.8926 -0.674123 0.076632 0.285998 0.00480132 2.39345 -41.5694 -6.22357 -10.4051 -5.44161 -15.2017 -0.801613 -10.1701 12.8571 -7.58756e-16 -3.7903e-16 -1.2577e-14 
34.7049 92.979 1871.94 0.135507 -11.7299 0.537655 0 5.22546 -1.18466 0.639372 5.25222 1.87487 0 5.77894 1.10239 0.267671 4.9568 1.92339 -1.0557e-17 6.16289 0.118334 -0.0117694 5.21619 1.97636 -1.13649e-17 6.69386 -0.456341 -0.275071 5.13512 1.9828 -2.02997e-17 7.82529 -1.54945 -0.126083 4.56056 2.10559 -2.60628e-17 9.77186 -0.940923 0.293738 4.57867 1.88276 -2.98794e-17 10.8563 1.62248 0.10557 0.487289 -0.189794 -1.32927e-17 4.92478 0.736013 -2.14408 -7.93642 -7.19512 -1.86396e-17 4.96043 0.433981 -0.61002 -7.72531 -3.51704 -2.06766e-17 4.97002 0.787173 0.18738 -5.78005 2.36639 1.26863 -7.82717 7.75148 -4.91503 4.61922 -4.13703 13.3291 3.34342 -3.36319 -77.8019 25.8557 0.903886 30.0522 0.0615366 0.141 1.53638 -0.0917449 -7.42421 24.9344 0.0510561 0.116988 -1.06492 -42.9486 1.57325 -1.26863 -7.82715 7.75138 0.524957 0.121016 4.39668 -13.3291 3.34342 -3.36319 57.4293 11.0435 26.4171 -30.0522 0.0615366 0.141 -6.10249 -1.64735 30.7818 -24.9344 0.0510559 0.116988 4.57637 -42.3369 7.80305 9.50369 -4.32711 2.09145 -3.68411 -26.4533 -15.5542 -0.876987 -39.8926 -0.674123 -10.4247 34.6163 2.62961 -2.39345 -41.5694 -6.22357 2.87059 -10.7064 15.4059 0.801613 -10.1701 12.8571 3.62408e-17 -6.71318e-16 -1.93163e-16 -9.50369 -4.32711 2.09145 2.36129 10.1451 14.8255 0.876987 -39.8926 -0.674123 -0.0248914 -0.0928764 -0.00164084 2.39345 -41.5694 -6.22357 -10.3663 -5.363 -15.1141 -0.801613 -10.1701 12.8571 -9.97693e-16 -3.68707e-16 -1.2567e-14 
34.5632 93.0955 1873.8 -0.432633 -11.1126 0.365309 0 5.22546 -1.18466 0.702537 5.03069 1.88909 0 5.77894 1.10239 0.318245 4.81941 1.94223 -1.0557e-17 6.16289 0.118334 0.0230156 5.13035 1.99272 -1.13649e-17 6.69386 -0.456341 -0.257409 5.12517 1.99861 -2.02997e-17 7.82529 -1.54945 -0.121195 4.58652 2.11388 -2.60628e-17 9.77186 -0.940923 0.291027 4.65844 1.8873 -2.98794e-17 10.8563 1.62248 0.116277 0.478724 -0.200541 -1.32927e-17 4.92478 0.736013 -2.1561 -8.59956 -7.03224 -1.86396e-17 4.96043 0.433981 -0.450038 -7.73971 -3.42769 -2.06766e-17 4.97002 0.787173 0.234893 -5.59108 2.26809 1.26863 -7.82717 7.75148 -5.45588 4.65305 -4.6325 13.3291 3.34342 -3.36319 -77.1984 24.7953 0.675465 30.0522 0.0615366 0.141 1.41639 -0.0773586 -6.84178 24.9344 0.0510561 0.116988 -1.3146 -40.4753 1.6137 -1.26863 -7.82715 7.75138 0.824398 0.0505921 4.64717 -13.3291 3.34342 -3.36319 57.8383 11.4501 26.0131 -30.0522 0.0615366 0.141 -6.29879 -1.7654 31.8799 -24.9344 0.0510559 0.116988 4.52348 -42.1694 7.96527 9.50369 -4.32711 2.09145 -1.46825 -25.6325 -12.3686 -0.876987 -39.8926 -0.674123 -8.02572 27.9329 1.49993 -2.39345 -41.5694 -6.22357 2.8066 -11.6744 15.3095 0.801613 -10.1701 12.8571 1.15886e-16 -6.67877e-16 -1.98141e-16 -9.50369 -4.32711 2.09145 2.92201 10.7638 14.9634 0.876987 -39.8926 -0.674123 -0.0845627 -0.31548 -0.00573913 2.39345 -41.5694 -6.22357 -10.3842 -5.35105 -15.014 -0.801613 -10.1701 12.8571 -3.61846e-16 -3.96179e-16 -1.25869e-14 
